<?xml version="1.0" encoding="utf-8"?>
<!-- Generator: Adobe Illustrator 16.0.0, SVG Export Plug-In . SVG Version: 6.00 Build 0)  -->
<!DOCTYPE svg PUBLIC "-//W3C//DTD SVG 1.1//EN" "http://www.w3.org/Graphics/SVG/1.1/DTD/svg11.dtd">
<svg version="1.1" id="Capa_1" xmlns="http://www.w3.org/2000/svg" xmlns:xlink="http://www.w3.org/1999/xlink" x="0px" y="0px"
	 width="90px" height="90px" viewBox="153 5 90 90" enable-background="new 153 5 90 90" xml:space="preserve">
<g>
	<g>
		<path fill="#F5F9DC" d="M198,6.5c-11.606,0.014-21.011,9.419-21.025,21.025V65.95c0.004,4.002,3.248,7.245,7.25,7.249h8.7V87.7
			c0,3.203,2.597,5.8,5.8,5.8c3.204,0,5.8-2.597,5.8-5.8V73.199h7.25c4.003-0.004,7.245-3.247,7.249-7.249V27.525
			C219.011,15.919,209.605,6.514,198,6.5z M201.624,87.7c0,1.601-1.298,2.899-2.898,2.899c-1.603,0-2.901-1.299-2.901-2.899V73.199
			h5.799V87.7z M216.125,65.95c0,2.403-1.947,4.351-4.35,4.351h-27.55c-2.402,0-4.35-1.947-4.35-4.351v-31.9h1.45
			c0.801,0,1.451,0.65,1.451,1.45v11.6c0,2.403,1.948,4.35,4.35,4.35c2.402,0,4.35-1.947,4.35-4.35V35.5c0-0.8,0.649-1.45,1.45-1.45
			c0.801,0,1.451,0.65,1.451,1.45v1.451c0,2.402,1.947,4.35,4.35,4.35c2.401,0,4.35-1.948,4.35-4.35V35.5
			c0-0.8,0.649-1.45,1.449-1.45h11.601L216.125,65.95L216.125,65.95z M216.125,31.15h-11.601c-2.402,0-4.35,1.947-4.35,4.35v1.451
			c0,0.8-0.649,1.45-1.449,1.45c-0.801,0-1.45-0.649-1.45-1.45V35.5c0-2.403-1.947-4.35-4.35-4.35c-2.402,0-4.35,1.947-4.35,4.35
			v11.6c0,0.8-0.649,1.45-1.45,1.45s-1.45-0.65-1.45-1.45V35.5c0-2.403-1.948-4.35-4.35-4.35h-1.45v-3.625
			c0-10.01,8.115-18.125,18.125-18.125c10.009,0,18.126,8.114,18.126,18.125V31.15L216.125,31.15z"/>
	</g>
</g>
</svg>
