<?xml version="1.0" encoding="utf-8"?>
<!-- Generator: Adobe Illustrator 16.0.0, SVG Export Plug-In . SVG Version: 6.00 Build 0)  -->
<!DOCTYPE svg PUBLIC "-//W3C//DTD SVG 1.1//EN" "http://www.w3.org/Graphics/SVG/1.1/DTD/svg11.dtd">
<svg version="1.1" id="Layer_1" xmlns="http://www.w3.org/2000/svg" xmlns:xlink="http://www.w3.org/1999/xlink" x="0px" y="0px"
	 width="90px" height="90px" viewBox="0 0 90 90" enable-background="new 0 0 90 90" xml:space="preserve">
<g>
	<path fill="none" stroke="#F9F5DC" stroke-width="3" stroke-linecap="round" stroke-linejoin="round" stroke-miterlimit="10" d="
		M60.094,55.282c0,3.477,0,11.243,0,13.783c0,0.118-0.014,0.235-0.021,0.354c16.332-2.469,27.962-8.826,27.962-16.285
		c0-2.518,0-11.616,0-14.134C88.034,46.456,76.414,52.813,60.094,55.282z"/>
	<path fill="none" stroke="#F9F5DC" stroke-width="3" stroke-linecap="round" stroke-linejoin="round" stroke-miterlimit="10" d="
		M8.448,48.172c4.969-3.227,13.696-5.369,23.639-5.369c15.467,0,28.007,5.181,28.007,11.574c0,0.249,0,0.563,0,0.905
		c16.32-2.47,27.94-8.826,27.94-16.282c0-9.603-19.267-17.385-43.034-17.385C21.233,21.615,1.965,29.397,1.965,39
		C1.965,42.368,4.344,45.51,8.448,48.172z"/>
	<path fill="none" stroke="#F9F5DC" stroke-width="3" stroke-linecap="round" stroke-linejoin="round" stroke-miterlimit="10" d="
		M60.094,69.417c0-0.342,0-0.656,0-0.905c0-6.394-12.54-11.573-28.007-11.573c-9.943,0-18.67,2.141-23.639,5.368V48.172
		c4.969-3.227,13.696-5.369,23.639-5.369c15.467,0,28.007,5.181,28.007,11.574c0,0.249,0,0.563,0,0.905V69.417z"/>
	<path fill="none" stroke="#F9F5DC" stroke-width="3" stroke-linecap="round" stroke-linejoin="round" stroke-miterlimit="10" d="
		M8.448,62.307c-4.104-2.662-6.482-5.805-6.482-9.171V39c0,3.368,2.378,6.51,6.482,9.172V62.307z"/>
</g>
</svg>
