<?xml version="1.0" encoding="utf-8"?>
<!-- Generator: Adobe Illustrator 16.0.0, SVG Export Plug-In . SVG Version: 6.00 Build 0)  -->
<!DOCTYPE svg PUBLIC "-//W3C//DTD SVG 1.1//EN" "http://www.w3.org/Graphics/SVG/1.1/DTD/svg11.dtd">
<svg version="1.1" id="Layer_1" xmlns="http://www.w3.org/2000/svg" xmlns:xlink="http://www.w3.org/1999/xlink" x="0px" y="0px"
	 width="90px" height="90px" viewBox="0 0 90 90" enable-background="new 0 0 90 90" xml:space="preserve">
<g>
	<path fill="#F9F5DC" d="M59.311,69.042c-0.374,0-0.738-0.141-1.018-0.397c-0.334-0.31-0.511-0.753-0.479-1.208
		c0-0.006,0.008-0.104,0.009-0.111l0.008-0.117V54.167c0-0.828,0.672-1.5,1.5-1.5s1.5,0.672,1.5,1.5v11.608
		c13.887-2.412,23.436-7.919,23.436-13.641V38.763c0-0.829,0.672-1.5,1.5-1.5s1.5,0.671,1.5,1.5v13.372
		c0,7.715-10.886,14.345-27.732,16.891C59.46,69.036,59.385,69.042,59.311,69.042z"/>
</g>
<g>
	<path fill="#F9F5DC" d="M59.331,55.667c-0.828,0-1.5-0.672-1.5-1.5v-0.855c0-4.47-10.267-9.45-24.998-9.45
		c-8.829,0-16.884,1.809-21.548,4.838c-0.496,0.322-1.137,0.323-1.633,0.001c-4.459-2.894-6.816-6.33-6.816-9.938
		c0-10.064,18.543-17.948,42.216-17.948c23.673,0,42.216,7.884,42.216,17.948c0,0.829-0.672,1.5-1.5,1.5s-1.5-0.671-1.5-1.5
		c0-7.219-15.758-14.948-39.216-14.948S5.835,31.544,5.835,38.763c0,2.882,2.388,5.269,4.674,6.895
		c5.207-3.015,13.443-4.796,22.324-4.796c15.7,0,27.998,5.469,27.998,12.45v0.855C60.831,54.995,60.159,55.667,59.331,55.667z"/>
</g>
<g>
	<path fill="#F9F5DC" d="M59.331,69.04c-0.828,0-1.5-0.672-1.5-1.5v-0.856c0-4.47-10.267-9.449-24.998-9.449
		c-8.829,0-16.884,1.809-21.548,4.837c-0.461,0.3-1.051,0.321-1.533,0.061c-0.483-0.263-0.784-0.769-0.784-1.318V47.441
		c0-0.508,0.257-0.981,0.683-1.258c5.13-3.333,13.796-5.322,23.182-5.322c15.7,0,27.998,5.469,27.998,12.45V67.54
		C60.831,68.368,60.159,69.04,59.331,69.04z M32.833,54.234c11.054,0,20.422,2.711,24.998,6.752v-7.675
		c0-4.47-10.267-9.45-24.998-9.45c-8.413,0-16.122,1.642-20.865,4.417v9.978C17.186,55.713,24.742,54.234,32.833,54.234z"/>
</g>
<g>
	<path fill="#F9F5DC" d="M10.468,62.313c-0.285,0-0.569-0.081-0.816-0.241c-4.459-2.893-6.816-6.329-6.816-9.937V38.763
		c0-0.829,0.671-1.5,1.5-1.5s1.5,0.671,1.5,1.5c0,3.21,2.963,5.807,5.449,7.421c0.426,0.276,0.684,0.75,0.684,1.258v13.372
		c0,0.55-0.301,1.056-0.784,1.318C10.96,62.253,10.714,62.313,10.468,62.313z M5.835,45.567v6.568c0,2.229,1.428,4.161,3.133,5.675
		v-9.57C7.746,47.39,6.699,46.496,5.835,45.567z"/>
</g>
<path fill="#F9F5DC" d="M81.47,47.622c-0.438,0-0.872-0.19-1.168-0.558c-0.521-0.645-0.42-1.589,0.225-2.109
	c0.168-0.136,0.333-0.272,0.492-0.411c0.625-0.543,1.573-0.478,2.116,0.147c0.544,0.625,0.478,1.572-0.147,2.116
	c-0.187,0.162-0.379,0.322-0.576,0.481C82.134,47.513,81.801,47.622,81.47,47.622z"/>
<path fill="#F9F5DC" d="M63.13,55.001c-0.699,0-1.326-0.492-1.469-1.205c-0.163-0.813,0.363-1.603,1.176-1.766
	c6.053-1.214,11.256-3.036,15.048-5.269c0.712-0.419,1.632-0.184,2.054,0.532c0.42,0.714,0.182,1.633-0.532,2.054
	c-4.076,2.399-9.602,4.345-15.979,5.624C63.327,54.991,63.229,55.001,63.13,55.001z"/>
<path fill="#F9F5DC" d="M13.346,41.978c-0.679,0-1.295-0.465-1.458-1.155l-0.049-0.2c-0.204-0.803,0.283-1.619,1.086-1.822
	c0.806-0.201,1.619,0.284,1.822,1.086l0.06,0.245c0.191,0.806-0.308,1.614-1.114,1.805C13.577,41.965,13.461,41.978,13.346,41.978z"
	/>
<path fill="#F9F5DC" d="M12.691,35.199c-0.454-0.506-0.519-1.274-0.114-1.856l0.116-0.17c0.462-0.688,1.394-0.87,2.082-0.408
	c0.687,0.466,0.87,1.395,0.408,2.082l-0.143,0.208c-0.473,0.68-1.407,0.849-2.087,0.376C12.855,35.362,12.768,35.284,12.691,35.199z
	"/>
<path fill="#F9F5DC" d="M18.315,32.077c-0.285-0.617-0.121-1.371,0.438-1.808l0.161-0.129c0.644-0.521,1.588-0.421,2.11,0.222
	c0.52,0.647,0.421,1.589-0.222,2.11l-0.197,0.157c-0.652,0.511-1.595,0.397-2.106-0.254C18.424,32.281,18.364,32.181,18.315,32.077z
	"/>
</svg>
