<?xml version="1.0" encoding="utf-8"?>
<!-- Generator: Adobe Illustrator 16.0.0, SVG Export Plug-In . SVG Version: 6.00 Build 0)  -->
<!DOCTYPE svg PUBLIC "-//W3C//DTD SVG 1.1//EN" "http://www.w3.org/Graphics/SVG/1.1/DTD/svg11.dtd">
<svg version="1.1" id="Capa_1" xmlns="http://www.w3.org/2000/svg" xmlns:xlink="http://www.w3.org/1999/xlink" x="0px" y="0px"
	 width="90px" height="90px" viewBox="153 5 90 90" enable-background="new 153 5 90 90" xml:space="preserve">
<g>
	<path fill="#F5F9DC" d="M171.745,50.873c0,0.784,0.638,1.423,1.423,1.423c0.784,0,1.423-0.639,1.423-1.423
		c0-0.785-0.639-1.424-1.423-1.424C172.383,49.449,171.745,50.088,171.745,50.873z"/>
	<path fill="#F5F9DC" d="M166.236,47.2c0,0.784,0.639,1.423,1.423,1.423s1.423-0.639,1.423-1.423s-0.639-1.423-1.423-1.423
		S166.236,46.416,166.236,47.2z"/>
	<path fill="#F5F9DC" d="M215.077,50.873c0-0.785-0.639-1.424-1.422-1.424c-0.786,0-1.424,0.639-1.424,1.424
		c0,0.784,0.638,1.423,1.424,1.423C214.438,52.296,215.077,51.657,215.077,50.873z"/>
	<path fill="#F5F9DC" d="M239.671,15.47c1.969-1.968,1.969-5.171,0-7.141c-0.952-0.953-2.222-1.478-3.57-1.478
		s-2.617,0.525-3.571,1.479c-0.534,0.536-12.778,12.779-20.455,20.456c-5.582-3.542-12.008-5.41-18.664-5.41
		c-5.048,0-9.919,1.057-14.479,3.139c-0.692,0.315-0.997,1.133-0.681,1.824c0.316,0.692,1.133,0.997,1.825,0.681
		c4.198-1.917,8.684-2.89,13.334-2.89c5.922,0,11.648,1.605,16.664,4.656c-1.476,1.476-2.653,2.653-3.363,3.364
		c-0.868-0.479-1.764-0.914-2.684-1.299c-0.701-0.293-1.509,0.036-1.804,0.737c-0.293,0.702,0.037,1.508,0.738,1.803
		c4.388,1.839,8.143,4.891,10.86,8.826c0.268,0.387,0.697,0.595,1.134,0.595c0.27,0,0.543-0.08,0.78-0.244
		c0.627-0.432,0.783-1.29,0.351-1.916c-0.487-0.707-1.01-1.385-1.558-2.04l3.267-3.267c4.706,5.478,7.41,12.324,7.715,19.542H161.31
		c0.426-9.866,5.4-19.066,13.495-24.826c0.62-0.44,0.764-1.3,0.324-1.921c-0.441-0.62-1.3-0.765-1.92-0.324
		c-8.82,6.275-14.227,16.314-14.654,27.07h-2.326c-0.76,0-1.377,0.616-1.377,1.377c0,0.76,0.616,1.377,1.377,1.377h2.466
		l4.309,32.314c0.092,0.684,0.675,1.195,1.366,1.195h58.083c0.69,0,1.274-0.512,1.365-1.195l4.309-32.314h2.466
		c0.761,0,1.377-0.617,1.377-1.377c0-0.761-0.616-1.377-1.377-1.377h-2.324c-0.31-7.95-3.298-15.492-8.518-21.495L239.671,15.47z
		 M221.246,90.395h-55.671l-4.1-30.755h63.873L221.246,90.395z M209.11,35.644c5.091-5.09,24.687-24.685,25.367-25.366
		c0.434-0.433,1.01-0.672,1.623-0.672c0.614,0,1.19,0.239,1.624,0.672c0.895,0.895,0.895,2.352,0,3.247L212.66,38.587
		C211.56,37.507,210.374,36.522,209.11,35.644z"/>
</g>
</svg>
