<?xml version="1.0" encoding="utf-8"?>
<!-- Generator: Adobe Illustrator 16.0.0, SVG Export Plug-In . SVG Version: 6.00 Build 0)  -->
<!DOCTYPE svg PUBLIC "-//W3C//DTD SVG 1.1//EN" "http://www.w3.org/Graphics/SVG/1.1/DTD/svg11.dtd">
<svg version="1.1" id="Capa_1" xmlns="http://www.w3.org/2000/svg" xmlns:xlink="http://www.w3.org/1999/xlink" x="0px" y="0px"
	 width="90px" height="90px" viewBox="153 5 90 90" enable-background="new 153 5 90 90" xml:space="preserve">
<g>
	<path fill="#F9F5DC" d="M237.014,26.707c-2.669-2.67-5.973-4.08-9.554-4.08c-0.749,0-1.51,0.064-2.27,0.188
		c0.704-4.339-0.647-8.58-3.896-11.829C218.686,8.379,215.471,7,211.993,7c-3.646,0-7.668,1.571-10.76,4.204
		c-19.175,16.326-32.59,28.836-32.724,28.959c-0.016,0.016-0.033,0.032-0.049,0.047c-4.014,4.014-4.358,10.324-1.041,14.736
		l-10.654,9.936c-2.244,2.092-2.367,5.62-0.275,7.865c1.015,1.087,2.391,1.713,3.875,1.766c0.066,0.002,0.132,0.003,0.199,0.003
		c1.413,0,2.752-0.524,3.79-1.494l10.916-10.179c1.976,1.554,4.396,2.399,6.948,2.399c0.182,0,0.364-0.006,0.545-0.016
		c-0.14,2.692,0.695,5.347,2.393,7.503l-10.177,10.914c-1.014,1.087-1.543,2.503-1.491,3.989c0.052,1.485,0.68,2.861,1.766,3.876
		c1.071,0.997,2.433,1.491,3.794,1.491c1.489,0,2.976-0.593,4.071-1.768l9.933-10.652c1.942,1.465,4.294,2.26,6.77,2.26
		c3.009,0,5.839-1.173,7.968-3.301c0.016-0.019,0.031-0.034,0.048-0.05c0.124-0.134,12.634-13.55,28.959-32.725
		c2.191-2.572,3.679-5.839,4.086-8.962C241.426,33.618,240.088,29.781,237.014,26.707z M161.666,70.134
		c-0.316,0.297-0.732,0.449-1.161,0.436c-0.432-0.016-0.832-0.198-1.128-0.514c-0.609-0.653-0.574-1.68,0.08-2.29l10.671-9.95
		l2.292,2.291L161.666,70.134z M180.233,88.542c-0.609,0.653-1.636,0.688-2.289,0.081c-0.316-0.296-0.499-0.695-0.514-1.129
		c-0.015-0.432,0.14-0.844,0.434-1.161l10.028-10.754l2.292,2.291L180.233,88.542z M233.792,44.208
		c-15.921,18.702-28.191,31.895-28.814,32.563c-1.381,1.369-3.212,2.124-5.156,2.124c-1.958,0-3.797-0.764-5.179-2.146l-5.792-5.792
		c-1.991-1.99-2.662-4.884-1.751-7.551c0.242-0.711,0.06-1.499-0.472-2.031c-0.377-0.378-0.881-0.578-1.396-0.578
		c-0.213,0-0.428,0.035-0.636,0.106c-0.765,0.26-1.563,0.393-2.374,0.393c-1.957,0-3.795-0.762-5.178-2.146l-5.791-5.791
		c-2.849-2.847-2.856-7.477-0.023-10.335c0.668-0.624,13.862-12.893,32.563-28.815c2.398-2.042,5.466-3.262,8.202-3.262
		c2.442,0,4.633,0.952,6.51,2.831c4.294,4.294,2.812,9.229,1.973,11.152c-0.323,0.743-0.16,1.609,0.414,2.182
		c0.573,0.574,1.44,0.737,2.181,0.414c1.43-0.622,2.947-0.95,4.389-0.95c2.549,0,4.824,0.983,6.764,2.924
		C239.38,34.652,236.379,41.17,233.792,44.208z"/>
	<path fill="#F9F5DC" d="M215.524,29.686l-26.322,26.32c-0.771,0.771-0.771,2.021,0,2.79c0.386,0.385,0.891,0.578,1.395,0.578
		c0.505,0,1.01-0.193,1.395-0.578l26.321-26.32c0.771-0.771,0.771-2.02,0-2.79C217.543,28.916,216.294,28.916,215.524,29.686z"/>
</g>
</svg>
