<?xml version="1.0" encoding="utf-8"?>
<!-- Generator: Adobe Illustrator 16.0.0, SVG Export Plug-In . SVG Version: 6.00 Build 0)  -->
<!DOCTYPE svg PUBLIC "-//W3C//DTD SVG 1.1//EN" "http://www.w3.org/Graphics/SVG/1.1/DTD/svg11.dtd">
<svg version="1.1" id="Capa_1" xmlns="http://www.w3.org/2000/svg" xmlns:xlink="http://www.w3.org/1999/xlink" x="0px" y="0px"
	 width="90px" height="90px" viewBox="153 5 90 90" enable-background="new 153 5 90 90" xml:space="preserve">
<g>
	<g>
		<path fill="#F5F9DC" d="M234.129,37.71c-0.008-0.746-0.617-1.348-1.364-1.348h-73.623c-0.746,0-1.355,0.602-1.364,1.348
			l-0.006,0.571c0,20.748,17.128,37.627,38.182,37.627s38.182-16.879,38.182-37.643L234.129,37.71z M195.955,73.182
			c-19.281,0-35.015-15.227-35.446-34.091h70.89C230.962,57.962,215.229,73.182,195.955,73.182z"/>
	</g>
</g>
<g>
	<g>
		<rect x="190.5" y="74.545" fill="#F5F9DC" width="2.727" height="10.909"/>
	</g>
</g>
<g>
	<g>
		<rect x="198.682" y="74.545" fill="#F5F9DC" width="2.728" height="10.909"/>
	</g>
</g>
<g>
	<g>
		<path fill="#F5F9DC" d="M217.772,90.909h-45c-0.753,0-1.364,0.61-1.364,1.363c0,0.755,0.611,1.364,1.364,1.364h45
			c0.754,0,1.363-0.609,1.363-1.364C219.136,91.52,218.526,90.909,217.772,90.909z"/>
	</g>
</g>
<g>
	<g>
		<path fill="#F5F9DC" d="M209.591,84.091h-28.637c-0.753,0-1.364,0.61-1.364,1.364s0.611,1.364,1.364,1.364h28.637
			c0.753,0,1.363-0.61,1.363-1.364S210.344,84.091,209.591,84.091z"/>
	</g>
</g>
<g>
	<g>
		<path fill="#F5F9DC" d="M193.277,65c-8.642-0.317-16.932-6.023-20.625-14.199c-0.31-0.686-1.118-0.991-1.804-0.68
			c-0.687,0.31-0.992,1.118-0.682,1.804c4.111,9.096,13.358,15.444,23.011,15.799c0.018,0.002,0.034,0.002,0.052,0.002
			c0.729,0,1.334-0.578,1.361-1.314C194.618,65.661,194.03,65.029,193.277,65z"/>
	</g>
</g>
<g>
	<g>
		<path fill="#F5F9DC" d="M165.511,44.206c-0.58-0.58-1.628-0.581-2.209,0c-0.291,0.291-0.458,0.694-0.458,1.106
			s0.167,0.814,0.458,1.104c0.291,0.291,0.692,0.458,1.104,0.458c0.411,0,0.814-0.167,1.104-0.458
			c0.291-0.292,0.458-0.694,0.458-1.104C165.969,44.901,165.802,44.499,165.511,44.206z"/>
	</g>
</g>
<g>
	<g>
		<path fill="#F5F9DC" d="M180.954,14.546c-9.774,0-17.726,8.156-17.726,18.181c0,1.836,0.267,3.651,0.794,5.396l2.611-0.79
			c-0.45-1.489-0.677-3.039-0.677-4.606c0-8.521,6.729-15.454,14.999-15.454c8.271,0,15,6.932,15,15.454
			c0,1.552-0.224,3.091-0.667,4.571l2.613,0.782c0.519-1.734,0.782-3.535,0.782-5.353C198.682,22.702,190.729,14.546,180.954,14.546
			z"/>
	</g>
</g>
<g>
	<g>
		<path fill="#F5F9DC" d="M210.45,14.546c-6.608,0-12.686,3.625-15.859,9.462l2.396,1.303c2.696-4.958,7.854-8.038,13.464-8.038
			c8.457,0,15.339,6.931,15.339,15.451c0,1.569-0.233,3.117-0.692,4.601l2.605,0.805c0.54-1.745,0.814-3.564,0.814-5.406
			C228.517,22.701,220.411,14.546,210.45,14.546z"/>
	</g>
</g>
<g>
	<g>
		<path fill="#F5F9DC" d="M195.155,6.364c-6.4,0-12.364,3.393-15.563,8.856l2.354,1.379c2.712-4.63,7.774-7.508,13.21-7.508
			c5.336,0,10.349,2.796,13.083,7.297l2.332-1.417C207.343,9.663,201.437,6.364,195.155,6.364z"/>
	</g>
</g>
<g>
	<g>
		<path fill="#F5F9DC" d="M237.721,8.032c-0.585-0.474-1.443-0.383-1.918,0.202L212.621,36.87c-0.474,0.584-0.383,1.443,0.203,1.917
			c0.252,0.205,0.556,0.304,0.855,0.304c0.398,0,0.792-0.172,1.063-0.506l23.181-28.636C238.397,9.364,238.307,8.506,237.721,8.032z
			"/>
	</g>
</g>
<g>
	<g>
		<path fill="#F5F9DC" d="M176.449,17.646c-0.61-0.61-1.6-0.61-2.21,0l-6.25,6.25c-0.61,0.61-0.61,1.6,0,2.21
			c0.305,0.305,0.705,0.458,1.104,0.458c0.399,0,0.8-0.153,1.105-0.458l6.25-6.25C177.059,19.245,177.059,18.255,176.449,17.646z"/>
	</g>
</g>
<g>
	<g>
		<path fill="#F5F9DC" d="M179.336,22.137c-0.718-0.479-1.688-0.285-2.167,0.434l-3.125,4.688c-0.479,0.718-0.285,1.688,0.433,2.167
			c0.267,0.178,0.568,0.263,0.865,0.263c0.505,0,1-0.244,1.302-0.696l3.125-4.688C180.248,23.586,180.054,22.616,179.336,22.137z"/>
	</g>
</g>
</svg>
