<?xml version="1.0" encoding="utf-8"?>
<!-- Generator: Adobe Illustrator 16.0.0, SVG Export Plug-In . SVG Version: 6.00 Build 0)  -->
<!DOCTYPE svg PUBLIC "-//W3C//DTD SVG 1.1//EN" "http://www.w3.org/Graphics/SVG/1.1/DTD/svg11.dtd">
<svg version="1.1" id="Layer_1" xmlns="http://www.w3.org/2000/svg" xmlns:xlink="http://www.w3.org/1999/xlink" x="0px" y="0px"
	 width="106px" height="108px" viewBox="0 0 106 108" enable-background="new 0 0 106 108" xml:space="preserve">
<g>
	<g>
		<path d="M88.337,18.665C79.06,9.386,66.772,4.208,53.678,4.036C53.45,4.016,53.224,4,53.001,4s-0.449,0.015-0.677,0.035
			c-13.095,0.173-25.382,5.35-34.66,14.628C8.226,28.103,3.026,40.651,3.026,54s5.199,25.897,14.638,35.336
			c9.278,9.277,21.563,14.455,34.66,14.629c0.228,0.02,0.454,0.035,0.677,0.035s0.449-0.016,0.677-0.035
			c13.095-0.172,25.382-5.35,34.659-14.629c9.439-9.438,14.637-21.988,14.637-35.335C102.974,40.652,97.776,28.104,88.337,18.665z
			 M21.865,22.865c5.309-5.309,11.735-9.092,18.749-11.136c-1.581,1.819-3.117,3.913-4.547,6.232
			c-1.824,2.958-3.403,6.165-4.727,9.555H17.819C19.049,25.888,20.397,24.333,21.865,22.865z M14.033,33.457h15.308
			c-1.592,5.571-2.533,11.506-2.766,17.574H9.069C9.479,44.818,11.178,38.856,14.033,33.457z M14.034,74.545
			c-2.856-5.4-4.553-11.363-4.965-17.573h17.506c0.232,6.067,1.174,12.003,2.766,17.573H14.034z M21.866,85.135
			c-1.469-1.467-2.817-3.021-4.047-4.65h13.522c1.322,3.393,2.901,6.6,4.726,9.557c1.431,2.318,2.968,4.412,4.548,6.23
			C33.603,94.229,27.175,90.443,21.866,85.135z M50.03,96.836c-2.475-1.619-5.799-4.871-8.907-9.914
			c-1.247-2.021-2.368-4.176-3.358-6.438H50.03V96.836L50.03,96.836z M50.03,74.545H35.539c-1.736-5.504-2.767-11.455-3.019-17.573
			h17.51V74.545z M50.03,51.03h-17.51c0.252-6.119,1.282-12.07,3.019-17.574H50.03V51.03z M50.03,27.516H37.765
			c0.99-2.26,2.111-4.414,3.358-6.436c3.108-5.043,6.433-8.296,8.907-9.915V27.516L50.03,27.516z M91.968,33.457
			c2.856,5.401,4.555,11.362,4.965,17.574H79.427c-0.232-6.069-1.174-12.003-2.766-17.574H91.968z M84.137,22.865
			c1.468,1.468,2.816,3.022,4.048,4.65H74.661c-1.322-3.39-2.902-6.597-4.727-9.555c-1.431-2.319-2.967-4.413-4.548-6.232
			C72.401,13.772,78.827,17.557,84.137,22.865z M55.972,11.165c2.475,1.619,5.797,4.872,8.906,9.915
			c1.248,2.022,2.369,4.176,3.359,6.436H55.971L55.972,11.165L55.972,11.165z M55.972,33.457h14.49
			c1.736,5.504,2.768,11.456,3.02,17.574h-17.51V33.457z M73.481,56.972c-0.252,6.118-1.283,12.069-3.021,17.573h-14.49V56.972
			H73.481z M55.972,96.836V80.484h12.266c-0.989,2.262-2.11,4.414-3.358,6.438C61.769,91.965,58.446,95.217,55.972,96.836z
			 M84.137,85.135c-5.31,5.311-11.735,9.094-18.749,11.137c1.581-1.818,3.117-3.912,4.547-6.23c1.824-2.957,3.404-6.164,4.728-9.555
			h13.522C86.953,82.113,85.604,83.668,84.137,85.135z M91.968,74.545H76.661c1.592-5.57,2.533-11.506,2.766-17.573h17.506
			C96.521,63.182,94.824,69.145,91.968,74.545z"/>
	</g>
</g>
</svg>
