<?xml version="1.0" encoding="utf-8"?>
<!-- Generator: Adobe Illustrator 16.0.0, SVG Export Plug-In . SVG Version: 6.00 Build 0)  -->
<!DOCTYPE svg PUBLIC "-//W3C//DTD SVG 1.1//EN" "http://www.w3.org/Graphics/SVG/1.1/DTD/svg11.dtd">
<svg version="1.1" id="Layer_1" xmlns="http://www.w3.org/2000/svg" xmlns:xlink="http://www.w3.org/1999/xlink" x="0px" y="0px"
	 width="106px" height="108px" viewBox="145.167 -3.5 106 108" enable-background="new 145.167 -3.5 106 108" xml:space="preserve">
<g>
	<g>
		<path fill="#FFFFFF" d="M233.336,14.664c-9.278-9.279-21.564-14.456-34.659-14.629C198.449,0.015,198.222,0,198,0
			s-0.449,0.015-0.677,0.035c-13.095,0.173-25.381,5.35-34.66,14.628c-9.438,9.439-14.637,21.988-14.637,35.336
			c0,13.348,5.198,25.897,14.637,35.336c9.279,9.279,21.564,14.456,34.66,14.629C197.551,99.985,197.778,100,198,100
			s0.449-0.015,0.677-0.035c13.095-0.173,25.381-5.35,34.659-14.629c9.439-9.438,14.637-21.988,14.637-35.336
			C247.973,36.652,242.775,24.103,233.336,14.664z M166.864,18.865c5.309-5.309,11.736-9.092,18.749-11.136
			c-1.581,1.819-3.117,3.913-4.547,6.232c-1.824,2.958-3.403,6.165-4.726,9.555h-13.522
			C164.048,21.887,165.396,20.333,166.864,18.865z M159.032,29.456h15.308c-1.592,5.571-2.533,11.506-2.766,17.574h-17.505
			C154.479,40.818,156.177,34.856,159.032,29.456z M159.033,70.545c-2.856-5.401-4.553-11.363-4.964-17.574h17.505
			c0.232,6.068,1.174,12.003,2.766,17.574H159.033z M166.865,81.135c-1.468-1.467-2.817-3.021-4.047-4.65h13.523
			c1.322,3.391,2.901,6.598,4.726,9.555c1.43,2.32,2.967,4.413,4.547,6.232C178.601,90.228,172.174,86.444,166.865,81.135z
			 M195.029,92.836c-2.475-1.619-5.798-4.871-8.907-9.914c-1.247-2.022-2.368-4.176-3.359-6.437h12.266V92.836L195.029,92.836z
			 M195.029,70.545h-14.491c-1.736-5.505-2.766-11.456-3.019-17.574h17.51V70.545z M195.029,47.03h-17.51
			c0.253-6.119,1.283-12.07,3.019-17.574h14.491V47.03z M195.029,23.515h-12.266c0.991-2.26,2.112-4.414,3.359-6.436
			c3.109-5.043,6.432-8.296,8.907-9.915L195.029,23.515L195.029,23.515z M236.967,29.456c2.856,5.401,4.554,11.362,4.965,17.574
			h-17.506c-0.232-6.069-1.174-12.003-2.766-17.574H236.967z M229.136,18.865c1.468,1.468,2.816,3.022,4.047,4.65H219.66
			c-1.322-3.39-2.902-6.597-4.727-9.555c-1.43-2.319-2.966-4.413-4.547-6.232C217.4,9.772,223.826,13.556,229.136,18.865z
			 M200.971,7.164c2.475,1.619,5.797,4.872,8.906,9.915c1.248,2.022,2.369,4.176,3.359,6.436h-12.266V7.164L200.971,7.164z
			 M200.971,29.456h14.49c1.736,5.504,2.768,11.456,3.02,17.574h-17.51V29.456z M218.48,52.971
			c-0.252,6.118-1.283,12.069-3.02,17.574h-14.49V52.971H218.48z M200.971,92.836V76.485h12.266
			c-0.99,2.261-2.111,4.414-3.359,6.437C206.768,87.965,203.445,91.217,200.971,92.836z M229.136,81.135
			c-5.31,5.31-11.735,9.093-18.749,11.137c1.581-1.819,3.117-3.912,4.547-6.231c1.824-2.958,3.404-6.165,4.727-9.555h13.522
			C231.952,78.113,230.604,79.668,229.136,81.135z M236.967,70.545H221.66c1.592-5.571,2.533-11.506,2.766-17.574h17.506
			C241.52,59.182,239.823,65.144,236.967,70.545z"/>
	</g>
</g>
</svg>
