<?xml version="1.0" encoding="utf-8"?>
<!-- Generator: Adobe Illustrator 16.0.0, SVG Export Plug-In . SVG Version: 6.00 Build 0)  -->
<!DOCTYPE svg PUBLIC "-//W3C//DTD SVG 1.1//EN" "http://www.w3.org/Graphics/SVG/1.1/DTD/svg11.dtd">
<svg version="1.1" id="Capa_1" xmlns="http://www.w3.org/2000/svg" xmlns:xlink="http://www.w3.org/1999/xlink" x="0px" y="0px"
	 width="110.5px" height="107.5px" viewBox="144.5 -7.5 110.5 107.5" enable-background="new 144.5 -7.5 110.5 107.5"
	 xml:space="preserve">
<g>
	<g>
		<path fill="#FFFFFF" d="M227.178,70.823c-6.875,0-12.469,5.593-12.469,12.469c0,6.875,5.594,12.469,12.469,12.469
			s12.469-5.594,12.469-12.469C239.646,76.416,234.053,70.823,227.178,70.823z M227.178,88.279c-2.75,0-4.988-2.236-4.988-4.987
			s2.238-4.987,4.988-4.987s4.987,2.236,4.987,4.987S229.928,88.279,227.178,88.279z"/>
	</g>
</g>
<g>
	<g>
		<path fill="#FFFFFF" d="M247.205,18.435c-0.708-0.995-1.795-1.576-2.945-1.576h-73.17l-3.367-15.467
			c-0.402-1.848-1.908-3.153-3.638-3.153h-12.344c-2.066,0-3.741,1.838-3.741,4.107c0,2.269,1.675,4.107,3.741,4.107h9.392
			l12.157,55.853c0.403,1.851,1.908,3.153,3.638,3.153h58.23c1.719,0,3.218-1.287,3.631-3.119l9.102-40.388
			C248.166,20.727,247.913,19.43,247.205,18.435z M232.23,57.245h-52.35l-7.002-32.172h66.603L232.23,57.245z"/>
	</g>
</g>
<g>
	<g>
		<path fill="#FFFFFF" d="M181.916,70.823c-6.875,0-12.469,5.593-12.469,12.469c0,6.875,5.593,12.469,12.469,12.469
			c6.875,0,12.469-5.594,12.469-12.469C194.384,76.416,188.791,70.823,181.916,70.823z M181.916,88.279
			c-2.75,0-4.988-2.236-4.988-4.987s2.237-4.987,4.988-4.987s4.987,2.236,4.987,4.987S184.666,88.279,181.916,88.279z"/>
	</g>
</g>
</svg>
