<?xml version="1.0" encoding="utf-8"?>
<!-- Generator: Adobe Illustrator 16.0.0, SVG Export Plug-In . SVG Version: 6.00 Build 0)  -->
<!DOCTYPE svg PUBLIC "-//W3C//DTD SVG 1.1//EN" "http://www.w3.org/Graphics/SVG/1.1/DTD/svg11.dtd">
<svg version="1.1" id="Capa_1" xmlns="http://www.w3.org/2000/svg" xmlns:xlink="http://www.w3.org/1999/xlink" x="0px" y="0px"
	 width="110.5px" height="107.5px" viewBox="0 0 110.5 107.5" enable-background="new 0 0 110.5 107.5" xml:space="preserve">
<g>
	<g>
		<path d="M84.428,77.572c-6.875,0-12.469,5.594-12.469,12.47c0,6.875,5.594,12.47,12.469,12.47s12.469-5.595,12.469-12.47
			C96.896,83.166,91.303,77.572,84.428,77.572z M84.428,95.029c-2.75,0-4.988-2.236-4.988-4.987s2.238-4.987,4.988-4.987
			s4.987,2.236,4.987,4.987S87.178,95.029,84.428,95.029z"/>
	</g>
</g>
<g>
	<g>
		<path d="M104.455,25.185c-0.708-0.995-1.795-1.576-2.945-1.576H28.34L24.973,8.142c-0.402-1.848-1.908-3.153-3.638-3.153H8.991
			c-2.066,0-3.741,1.838-3.741,4.107c0,2.269,1.675,4.107,3.741,4.107h9.392L30.54,69.057c0.403,1.85,1.908,3.152,3.638,3.152h58.23
			c1.719,0,3.218-1.287,3.631-3.119l9.102-40.388C105.416,27.477,105.163,26.18,104.455,25.185z M89.48,63.995H37.13l-7.002-32.172
			H96.73L89.48,63.995z"/>
	</g>
</g>
<g>
	<g>
		<path d="M39.166,77.572c-6.875,0-12.469,5.594-12.469,12.47c0,6.875,5.593,12.47,12.469,12.47c6.875,0,12.469-5.595,12.469-12.47
			C51.634,83.166,46.041,77.572,39.166,77.572z M39.166,95.029c-2.75,0-4.988-2.236-4.988-4.987s2.237-4.987,4.988-4.987
			s4.986,2.236,4.986,4.987S41.916,95.029,39.166,95.029z"/>
	</g>
</g>
</svg>
