<?xml version="1.0" encoding="utf-8"?>
<!-- Generator: Adobe Illustrator 16.0.0, SVG Export Plug-In . SVG Version: 6.00 Build 0)  -->
<!DOCTYPE svg PUBLIC "-//W3C//DTD SVG 1.1//EN" "http://www.w3.org/Graphics/SVG/1.1/DTD/svg11.dtd">
<svg version="1.1" id="Capa_1" xmlns="http://www.w3.org/2000/svg" xmlns:xlink="http://www.w3.org/1999/xlink" x="0px" y="0px"
	 width="314.068px" height="314.068px" viewBox="0 0 314.068 314.068" enable-background="new 0 0 314.068 314.068"
	 xml:space="preserve">
<g>
	<g id="_x33_56._Play">
		<g>
			<path fill="#E39842" d="M293.002,78.53C249.646,3.435,153.618-22.296,78.529,21.068C3.434,64.418-22.298,160.442,21.066,235.534
				c43.35,75.096,139.375,100.83,214.465,57.47C310.627,249.639,336.371,153.62,293.002,78.53z M219.834,265.801
				c-60.066,34.692-136.894,14.106-171.576-45.973C13.568,159.761,34.161,82.935,94.23,48.26
				c60.07-34.69,136.894-14.106,171.578,45.971C300.493,154.307,279.906,231.117,219.834,265.801z M213.555,150.652l-82.215-47.949
				c-7.491-4.374-13.534-0.877-13.492,7.789l0.421,95.174c0.038,8.664,6.154,12.191,13.669,7.852l81.585-47.104
				C221.029,162.082,221.045,155.026,213.555,150.652z"/>
		</g>
	</g>
</g>
</svg>
