<?xml version="1.0" encoding="utf-8"?>
<!-- Generator: Adobe Illustrator 16.0.0, SVG Export Plug-In . SVG Version: 6.00 Build 0)  -->
<!DOCTYPE svg PUBLIC "-//W3C//DTD SVG 1.1//EN" "http://www.w3.org/Graphics/SVG/1.1/DTD/svg11.dtd">
<svg version="1.1" id="Capa_1" xmlns="http://www.w3.org/2000/svg" xmlns:xlink="http://www.w3.org/1999/xlink" x="0px" y="0px"
	 width="114px" height="100px" viewBox="140.5 0 114 100" enable-background="new 140.5 0 114 100" xml:space="preserve">
<g>
	<g>
		<path fill="#F9F5DC" d="M198,0c-27.569,0-50,22.431-50,50s22.431,50,50,50s50-22.431,50-50S225.569,0,198,0z M198,95.652
			c-25.174,0-45.652-20.479-45.652-45.652S172.826,4.348,198,4.348S243.652,24.826,243.652,50S223.174,95.652,198,95.652z"/>
	</g>
</g>
<g>
	<g>
		<path fill="#F9F5DC" d="M198,39.13c-5.991,0-10.87,4.878-10.87,10.87s4.878,10.869,10.87,10.869S208.869,55.991,208.869,50
			S203.991,39.13,198,39.13z M198,56.521c-3.596,0-6.522-2.926-6.522-6.521s2.926-6.522,6.522-6.522s6.521,2.926,6.521,6.522
			S201.596,56.521,198,56.521z"/>
	</g>
</g>
<g>
	<g>
		<path fill="#F9F5DC" d="M208.504,27.057l-8.695-13.043c-0.809-1.209-2.809-1.209-3.617,0l-8.696,13.043
			c-0.443,0.665-0.487,1.526-0.108,2.23c0.378,0.705,1.113,1.148,1.917,1.148h17.391c0.805,0,1.539-0.443,1.918-1.148
			C208.991,28.583,208.947,27.722,208.504,27.057z M193.365,26.087L198,19.135l4.635,6.952H193.365z"/>
	</g>
</g>
<g>
	<g>
		<path fill="#F9F5DC" d="M208.613,70.713c-0.379-0.704-1.113-1.148-1.918-1.148h-17.391c-0.804,0-1.539,0.444-1.917,1.148
			c-0.378,0.705-0.335,1.565,0.108,2.23l8.696,13.043c0.404,0.609,1.083,0.971,1.809,0.971c0.727,0,1.404-0.361,1.809-0.971
			l8.695-13.043C208.947,72.278,208.991,71.418,208.613,70.713z M198,80.865l-4.635-6.952h9.27L198,80.865z"/>
	</g>
</g>
</svg>
